<svg width="51" height="51" viewBox="0 0 51 51" fill="none" xmlns="http://www.w3.org/2000/svg">
<rect x="0.243652" y="0.0800781" width="50.3672" height="50.3672" rx="15" fill="#383838"/>
<g filter="url(#filter0_i_1214_3722)">
<path d="M23.4026 15.7136L24.3299 17.3752C25.1668 18.8748 24.8309 20.8419 23.5128 22.16C23.5128 22.16 23.5128 22.16 23.5128 22.16C23.5127 22.1601 21.9141 23.7589 24.8128 26.6575C27.7107 29.5555 29.3095 27.9583 29.3103 27.9575C29.3103 27.9575 29.3103 27.9575 29.3103 27.9574C30.6284 26.6394 32.5955 26.3035 34.095 27.1403L35.7567 28.0677C38.021 29.3313 38.2884 32.5068 36.2981 34.4971C35.1022 35.6931 33.6371 36.6236 32.0175 36.685C29.2911 36.7884 24.661 36.0984 20.0164 31.4538C15.3719 26.8093 14.6819 22.1792 14.7852 19.4527C14.8466 17.8332 15.7772 16.3681 16.9732 15.1722C18.9634 13.1819 22.1389 13.4493 23.4026 15.7136Z" fill="#C1C1C1"/>
</g>
<defs>
<filter id="filter0_i_1214_3722" x="14.7759" y="13.833" width="22.8613" height="22.8613" filterUnits="userSpaceOnUse" color-interpolation-filters="sRGB">
<feFlood flood-opacity="0" result="BackgroundImageFix"/>
<feBlend mode="normal" in="SourceGraphic" in2="BackgroundImageFix" result="shape"/>
<feColorMatrix in="SourceAlpha" type="matrix" values="0 0 0 0 0 0 0 0 0 0 0 0 0 0 0 0 0 0 127 0" result="hardAlpha"/>
<feOffset/>
<feGaussianBlur stdDeviation="3"/>
<feComposite in2="hardAlpha" operator="arithmetic" k2="-1" k3="1"/>
<feColorMatrix type="matrix" values="0 0 0 0 0.320833 0 0 0 0 0.320833 0 0 0 0 0.320833 0 0 0 0.25 0"/>
<feBlend mode="normal" in2="shape" result="effect1_innerShadow_1214_3722"/>
</filter>
</defs>
</svg>
