<svg width="67" height="67" viewBox="0 0 67 67" fill="none" xmlns="http://www.w3.org/2000/svg">
<g filter="url(#filter0_i_1214_3707)">
<rect x="0.868408" y="0.816406" width="66.1042" height="66.1042" rx="15" fill="white"/>
</g>
<path d="M50.2372 40.4666C50.2372 46.1986 46.6965 49.6158 40.7572 49.6158H38.8155C37.9181 49.6158 37.1838 48.9072 37.1838 48.0411V38.9548C37.1838 38.5297 37.5428 38.1675 37.9833 38.1675L40.8551 38.1202C41.0835 38.1045 41.2793 37.947 41.3283 37.7265L41.8994 34.7188C41.9104 34.6506 41.9061 34.5809 41.8866 34.5146C41.8671 34.4482 41.8329 34.3867 41.7863 34.3343C41.7398 34.2819 41.682 34.2398 41.617 34.2111C41.552 34.1823 41.4814 34.1675 41.4099 34.1676L37.9344 34.2149C37.4775 34.2149 37.1186 33.8684 37.1022 33.4433L37.037 29.5852C37.037 29.3332 37.2491 29.1127 37.5265 29.1127L41.4425 29.0498C41.7199 29.0498 41.932 28.845 41.932 28.5773L41.8667 24.798C41.8667 24.5303 41.6546 24.3255 41.3772 24.3255L36.9717 24.3885C36.3286 24.398 35.6937 24.5298 35.1035 24.7764C34.5133 25.0231 33.9793 25.3797 33.5322 25.8259C33.085 26.2721 32.7335 26.799 32.4977 27.3766C32.262 27.9541 32.1466 28.5708 32.1583 29.1915L32.2399 33.522C32.2562 33.9629 31.8972 34.3094 31.4403 34.3251L29.4823 34.3566C29.2049 34.3566 28.9928 34.5613 28.9928 34.829L29.0418 37.821C29.0418 38.0887 29.2539 38.2934 29.5313 38.2934L31.4893 38.262C31.9462 38.262 32.3051 38.6084 32.3214 39.0336L32.4683 48.0096C32.4846 48.8914 31.7504 49.6158 30.8366 49.6158H27.0838C21.1445 49.6158 17.6038 46.1986 17.6038 40.4508V27.2703C17.6038 21.5383 21.1445 18.1211 27.0838 18.1211H40.7572C46.6965 18.1211 50.2372 21.5383 50.2372 27.2703V40.4666Z" fill="#0054B6"/>
<defs>
<filter id="filter0_i_1214_3707" x="0.868408" y="0.816406" width="66.1042" height="66.1045" filterUnits="userSpaceOnUse" color-interpolation-filters="sRGB">
<feFlood flood-opacity="0" result="BackgroundImageFix"/>
<feBlend mode="normal" in="SourceGraphic" in2="BackgroundImageFix" result="shape"/>
<feColorMatrix in="SourceAlpha" type="matrix" values="0 0 0 0 0 0 0 0 0 0 0 0 0 0 0 0 0 0 127 0" result="hardAlpha"/>
<feOffset/>
<feGaussianBlur stdDeviation="7.5"/>
<feComposite in2="hardAlpha" operator="arithmetic" k2="-1" k3="1"/>
<feColorMatrix type="matrix" values="0 0 0 0 0.845833 0 0 0 0 0.845833 0 0 0 0 0.845833 0 0 0 0.25 0"/>
<feBlend mode="normal" in2="shape" result="effect1_innerShadow_1214_3707"/>
</filter>
</defs>
</svg>
