<svg width="67" height="66" viewBox="0 0 67 66" fill="none" xmlns="http://www.w3.org/2000/svg">
<g filter="url(#filter0_i_1214_3703)">
<rect x="0.446289" y="0.128906" width="66.1042" height="65.4791" rx="15" fill="white"/>
</g>
<path d="M40.1841 17.7871H26.8284C21.0271 17.7871 17.5686 21.0598 17.5686 26.5494V39.1726C17.5686 44.6773 21.0271 47.9499 26.8284 47.9499H40.1682C45.9695 47.9499 49.4279 44.6773 49.4279 39.1876V26.5494C49.4439 21.0598 45.9854 17.7871 40.1841 17.7871ZM33.5062 38.7201C30.0956 38.7201 27.3224 36.0959 27.3224 32.8685C27.3224 29.6411 30.0956 27.0169 33.5062 27.0169C36.9169 27.0169 39.69 29.6411 39.69 32.8685C39.69 36.0959 36.9169 38.7201 33.5062 38.7201ZM42.9413 25.1468C42.8616 25.3278 42.7501 25.4937 42.6066 25.6445C42.4473 25.7803 42.2719 25.8858 42.0807 25.9612C41.7906 26.0777 41.4705 26.1098 41.1611 26.0534C40.8517 25.997 40.567 25.8547 40.3435 25.6445C40.2001 25.4937 40.0885 25.3278 40.0088 25.1468C39.9269 24.9656 39.8836 24.7708 39.8813 24.5737C39.8813 24.3777 39.9291 24.1816 40.0088 24.0007C40.0885 23.8046 40.2001 23.6538 40.3435 23.503C40.7101 23.1561 41.2679 22.9902 41.7779 23.0958C41.8894 23.1108 41.9851 23.141 42.0807 23.1863C42.1763 23.2164 42.2719 23.2617 42.3676 23.322C42.4473 23.3672 42.5269 23.4426 42.6066 23.503C42.7501 23.6538 42.8616 23.8046 42.9413 24.0007C43.021 24.1816 43.0688 24.3777 43.0688 24.5737C43.0688 24.7698 43.021 24.9659 42.9413 25.1468Z" fill="#CB3E92"/>
<defs>
<filter id="filter0_i_1214_3703" x="0.446289" y="0.128906" width="66.1042" height="65.4795" filterUnits="userSpaceOnUse" color-interpolation-filters="sRGB">
<feFlood flood-opacity="0" result="BackgroundImageFix"/>
<feBlend mode="normal" in="SourceGraphic" in2="BackgroundImageFix" result="shape"/>
<feColorMatrix in="SourceAlpha" type="matrix" values="0 0 0 0 0 0 0 0 0 0 0 0 0 0 0 0 0 0 127 0" result="hardAlpha"/>
<feOffset/>
<feGaussianBlur stdDeviation="7.5"/>
<feComposite in2="hardAlpha" operator="arithmetic" k2="-1" k3="1"/>
<feColorMatrix type="matrix" values="0 0 0 0 0.845833 0 0 0 0 0.845833 0 0 0 0 0.845833 0 0 0 0.25 0"/>
<feBlend mode="normal" in2="shape" result="effect1_innerShadow_1214_3703"/>
</filter>
</defs>
</svg>
