<svg width="67" height="66" viewBox="0 0 67 66" fill="none" xmlns="http://www.w3.org/2000/svg">
<g filter="url(#filter0_i_1214_3692)">
<rect x="0.0241699" y="0.128906" width="66.1042" height="65.4791" rx="15" fill="white"/>
</g>
<path d="M47.8454 26.6073V39.1291C47.8454 43.4512 44.1719 46.9551 39.6405 46.9551H26.5126C21.9811 46.9551 18.3076 43.4512 18.3076 39.1291V26.6073C18.3076 22.2851 21.9811 18.7812 26.5126 18.7812H39.6405C44.1719 18.7812 47.8454 22.2851 47.8454 26.6073Z" fill="#0054B6" stroke="#0054B6" stroke-width="2" stroke-linecap="round" stroke-linejoin="round"/>
<path d="M24.8738 40.6938V35.2156V29.7373" fill="#ADA3A3"/>
<path d="M24.8738 40.6938V35.2156V29.7373" stroke="white" stroke-width="2" stroke-linecap="round" stroke-linejoin="round"/>
<path d="M31.437 40.6938V35.6069M31.437 29.7373V35.6069M31.437 35.6069C31.437 29.7373 41.2829 29.7373 41.2829 35.6069V40.6938" stroke="white" stroke-width="2" stroke-linecap="round" stroke-linejoin="round"/>
<path d="M24.8738 25.0613L24.8931 25.04L24.8738 25.0613Z" fill="#ADA3A3"/>
<path d="M24.8738 25.0613L24.8931 25.04" stroke="white" stroke-width="2" stroke-linecap="round" stroke-linejoin="round"/>
<defs>
<filter id="filter0_i_1214_3692" x="0.0241699" y="0.128906" width="66.1042" height="65.4795" filterUnits="userSpaceOnUse" color-interpolation-filters="sRGB">
<feFlood flood-opacity="0" result="BackgroundImageFix"/>
<feBlend mode="normal" in="SourceGraphic" in2="BackgroundImageFix" result="shape"/>
<feColorMatrix in="SourceAlpha" type="matrix" values="0 0 0 0 0 0 0 0 0 0 0 0 0 0 0 0 0 0 127 0" result="hardAlpha"/>
<feOffset/>
<feGaussianBlur stdDeviation="7.5"/>
<feComposite in2="hardAlpha" operator="arithmetic" k2="-1" k3="1"/>
<feColorMatrix type="matrix" values="0 0 0 0 0.845833 0 0 0 0 0.845833 0 0 0 0 0.845833 0 0 0 0.25 0"/>
<feBlend mode="normal" in2="shape" result="effect1_innerShadow_1214_3692"/>
</filter>
</defs>
</svg>
