<svg width="51" height="52" viewBox="0 0 51 52" fill="none" xmlns="http://www.w3.org/2000/svg">
<rect x="0.243652" y="0.636719" width="50.3672" height="50.3672" rx="15" fill="#383838"/>
<g filter="url(#filter0_i_1214_3727)">
<path fill-rule="evenodd" clip-rule="evenodd" d="M26.2067 12.0518C20.4676 12.0518 15.8152 17.2509 15.8152 23.0928C15.8152 28.8889 19.1318 35.1891 24.3065 37.6077C25.5128 38.1716 26.9007 38.1716 28.107 37.6077C33.2816 35.1891 36.5983 28.8889 36.5983 23.0928C36.5983 17.2509 31.9458 12.0518 26.2067 12.0518ZM26.2067 25.0412C27.6415 25.0412 28.8046 23.8781 28.8046 22.4433C28.8046 21.0085 27.6415 19.8454 26.2067 19.8454C24.772 19.8454 23.6088 21.0085 23.6088 22.4433C23.6088 23.8781 24.772 25.0412 26.2067 25.0412Z" fill="#C1C1C1"/>
</g>
<defs>
<filter id="filter0_i_1214_3727" x="15.8152" y="12.0518" width="20.783" height="25.9785" filterUnits="userSpaceOnUse" color-interpolation-filters="sRGB">
<feFlood flood-opacity="0" result="BackgroundImageFix"/>
<feBlend mode="normal" in="SourceGraphic" in2="BackgroundImageFix" result="shape"/>
<feColorMatrix in="SourceAlpha" type="matrix" values="0 0 0 0 0 0 0 0 0 0 0 0 0 0 0 0 0 0 127 0" result="hardAlpha"/>
<feOffset/>
<feGaussianBlur stdDeviation="3"/>
<feComposite in2="hardAlpha" operator="arithmetic" k2="-1" k3="1"/>
<feColorMatrix type="matrix" values="0 0 0 0 0.320833 0 0 0 0 0.320833 0 0 0 0 0.320833 0 0 0 0.25 0"/>
<feBlend mode="normal" in2="shape" result="effect1_innerShadow_1214_3727"/>
</filter>
</defs>
</svg>
