<svg width="51" height="51" viewBox="0 0 51 51" fill="none" xmlns="http://www.w3.org/2000/svg">
<rect x="0.243652" y="0.195312" width="50.3672" height="50.3672" rx="15" fill="#383838"/>
<g filter="url(#filter0_i_1214_3732)">
<path fill-rule="evenodd" clip-rule="evenodd" d="M15.5991 17.1743C14.1914 18.5819 14.1914 20.8476 14.1914 25.3788C14.1914 29.91 14.1914 32.1756 15.5991 33.5833C17.0067 34.9909 19.2724 34.9909 23.8036 34.9909H28.6097C33.1409 34.9909 35.4065 34.9909 36.8142 33.5833C38.2218 32.1756 38.2218 29.91 38.2218 25.3788C38.2218 20.8476 38.2218 18.5819 36.8142 17.1743C35.4065 15.7666 33.1409 15.7666 28.6097 15.7666H23.8036C19.2724 15.7666 17.0067 15.7666 15.5991 17.1743ZM34.108 19.9958C34.4266 20.3781 34.375 20.9464 33.9926 21.265L31.3535 23.4642C30.2885 24.3517 29.4254 25.0711 28.6635 25.5611C27.8699 26.0715 27.097 26.3939 26.2066 26.3939C25.3162 26.3939 24.5433 26.0715 23.7497 25.5611C22.9879 25.0711 22.1247 24.3518 21.0597 23.4642L18.4206 21.265C18.0383 20.9464 17.9866 20.3781 18.3052 19.9958C18.6238 19.6135 19.1921 19.5618 19.5744 19.8804L22.1684 22.042C23.2893 22.9762 24.0676 23.6227 24.7246 24.0452C25.3607 24.4543 25.792 24.5916 26.2066 24.5916C26.6212 24.5916 27.0526 24.4543 27.6886 24.0452C28.3457 23.6227 29.1239 22.9762 30.2449 22.042L32.8389 19.8804C33.2212 19.5618 33.7894 19.6135 34.108 19.9958Z" fill="#C1C1C1"/>
</g>
<defs>
<filter id="filter0_i_1214_3732" x="14.1914" y="15.7666" width="24.0305" height="19.2246" filterUnits="userSpaceOnUse" color-interpolation-filters="sRGB">
<feFlood flood-opacity="0" result="BackgroundImageFix"/>
<feBlend mode="normal" in="SourceGraphic" in2="BackgroundImageFix" result="shape"/>
<feColorMatrix in="SourceAlpha" type="matrix" values="0 0 0 0 0 0 0 0 0 0 0 0 0 0 0 0 0 0 127 0" result="hardAlpha"/>
<feOffset/>
<feGaussianBlur stdDeviation="3"/>
<feComposite in2="hardAlpha" operator="arithmetic" k2="-1" k3="1"/>
<feColorMatrix type="matrix" values="0 0 0 0 0.320833 0 0 0 0 0.320833 0 0 0 0 0.320833 0 0 0 0.25 0"/>
<feBlend mode="normal" in2="shape" result="effect1_innerShadow_1214_3732"/>
</filter>
</defs>
</svg>
