<svg width="67" height="67" viewBox="0 0 67 67" fill="none" xmlns="http://www.w3.org/2000/svg">
<g filter="url(#filter0_i_1214_3714)">
<rect x="0.712402" y="0.816406" width="66.1042" height="66.1042" rx="15" fill="white"/>
</g>
<path d="M28.6752 48.3283C31.1645 48.4116 33.6453 47.9951 35.9708 47.1033C38.2964 46.2115 40.4196 44.8626 42.215 43.1363C44.0104 41.4099 45.4415 39.3412 46.4238 37.0524C47.406 34.7636 47.9195 32.3011 47.9339 29.8104C49.0746 28.3987 49.9217 26.7732 50.4254 25.0294C50.463 24.8916 50.4599 24.7459 50.4166 24.6099C50.3733 24.4738 50.2916 24.3531 50.1813 24.2624C50.071 24.1717 49.9369 24.1148 49.795 24.0985C49.6531 24.0823 49.5096 24.1074 49.3816 24.1709C48.7848 24.4581 48.1129 24.5509 47.4606 24.4362C46.8082 24.3214 46.2083 24.0049 45.7454 23.5311C45.1544 22.884 44.4395 22.362 43.6432 21.9962C42.8468 21.6304 41.9851 21.4282 41.1091 21.4015C40.2331 21.3748 39.3607 21.5242 38.5435 21.8409C37.7263 22.1575 36.981 22.635 36.3517 23.245C35.4901 24.0794 34.8591 25.1225 34.5198 26.2729C34.1806 27.4234 34.1447 28.642 34.4158 29.8104C28.7762 30.1471 24.9043 27.4704 21.8067 23.8005C21.7137 23.6951 21.592 23.6191 21.4564 23.5818C21.3209 23.5444 21.1774 23.5474 21.0435 23.5902C20.9096 23.633 20.7911 23.714 20.7024 23.8231C20.6137 23.9321 20.5587 24.0647 20.5442 24.2045C19.9541 27.4779 20.3797 30.8534 21.764 33.8777C23.1483 36.9021 25.4249 39.4304 28.288 41.1232C26.3683 43.3248 23.6724 44.6999 20.763 44.9614C20.6071 44.9873 20.4633 45.0612 20.3515 45.1729C20.2397 45.2846 20.1657 45.4284 20.1397 45.5842C20.1137 45.7401 20.1371 45.9002 20.2066 46.042C20.2761 46.1839 20.3883 46.3005 20.5273 46.3755C23.0584 47.6404 25.8457 48.3085 28.6752 48.3283Z" fill="#0054B6"/>
<defs>
<filter id="filter0_i_1214_3714" x="0.712402" y="0.816406" width="66.1042" height="66.1045" filterUnits="userSpaceOnUse" color-interpolation-filters="sRGB">
<feFlood flood-opacity="0" result="BackgroundImageFix"/>
<feBlend mode="normal" in="SourceGraphic" in2="BackgroundImageFix" result="shape"/>
<feColorMatrix in="SourceAlpha" type="matrix" values="0 0 0 0 0 0 0 0 0 0 0 0 0 0 0 0 0 0 127 0" result="hardAlpha"/>
<feOffset/>
<feGaussianBlur stdDeviation="7.5"/>
<feComposite in2="hardAlpha" operator="arithmetic" k2="-1" k3="1"/>
<feColorMatrix type="matrix" values="0 0 0 0 0.845833 0 0 0 0 0.845833 0 0 0 0 0.845833 0 0 0 0.25 0"/>
<feBlend mode="normal" in2="shape" result="effect1_innerShadow_1214_3714"/>
</filter>
</defs>
</svg>
