<svg width="51" height="52" viewBox="0 0 51 52" fill="none" xmlns="http://www.w3.org/2000/svg">
<rect x="0.243652" y="0.75293" width="50.3672" height="50.3672" rx="15" fill="#383838"/>
<g filter="url(#filter0_i_1214_3739)">
<path d="M37.0181 24.4251C36.6498 18.1418 30.9406 13.2993 24.3648 14.3826C19.8365 15.1301 16.2073 18.8026 15.5031 23.331C15.0915 25.9526 15.6331 28.4335 16.814 30.481L15.8498 34.0668C15.6331 34.8793 16.3806 35.616 17.1823 35.3885L20.714 34.4135C22.3173 35.356 24.1915 35.8976 26.1956 35.8976C32.3056 35.8976 37.3756 30.5135 37.0181 24.4251ZM31.4931 29.0943C31.2319 29.6302 30.7855 30.0535 30.2365 30.286C29.9115 30.4268 29.554 30.4918 29.1748 30.4918C28.6223 30.4918 28.0265 30.3618 27.409 30.091C26.7508 29.802 26.1261 29.4424 25.5456 29.0185C24.9173 28.5635 24.3323 28.0543 23.769 27.5018C23.2056 26.9385 22.7073 26.3426 22.2523 25.7251C21.8081 25.1076 21.4506 24.4901 21.1906 23.8726C20.9306 23.2551 20.8006 22.6593 20.8006 22.096C20.8006 21.7276 20.8656 21.3701 20.9956 21.0451C21.1256 20.7093 21.3315 20.406 21.624 20.1351C21.9706 19.7885 22.3498 19.626 22.7506 19.626C22.9023 19.626 23.054 19.6585 23.1948 19.7235C23.3356 19.7885 23.4656 19.886 23.5631 20.0268L24.8198 21.8035C24.9173 21.9443 24.9931 22.0635 25.0365 22.1826C25.0906 22.3018 25.1123 22.4101 25.1123 22.5185C25.1123 22.6485 25.069 22.7785 24.9931 22.9085C24.9173 23.0385 24.8198 23.1685 24.6898 23.2985L24.2781 23.7318C24.2131 23.7968 24.1915 23.8618 24.1915 23.9485C24.1915 23.9918 24.2023 24.0351 24.2131 24.0785C24.2348 24.1218 24.2456 24.1543 24.2565 24.1868C24.354 24.371 24.5273 24.5985 24.7656 24.8801C25.2728 25.4761 25.8271 26.0304 26.4231 26.5376C26.7048 26.776 26.9431 26.9385 27.1273 27.036C27.1598 27.0468 27.1923 27.0685 27.2248 27.0793C27.2681 27.101 27.3115 27.101 27.3656 27.101C27.4631 27.101 27.5281 27.0685 27.5931 27.0035L28.0048 26.5918C28.1456 26.451 28.2756 26.3535 28.3948 26.2885C28.5248 26.2126 28.644 26.1693 28.7848 26.1693C28.8931 26.1693 29.0015 26.191 29.1206 26.2451C29.2398 26.2993 29.3698 26.3643 29.4998 26.4618L31.2981 27.7401C31.439 27.8376 31.5365 27.9568 31.6015 28.0868C31.6556 28.2276 31.6881 28.3576 31.6881 28.5093C31.6231 28.6935 31.5798 28.8993 31.4931 29.0943Z" fill="#BEBEBE"/>
</g>
<defs>
<filter id="filter0_i_1214_3739" x="15.3665" y="14.2305" width="21.6694" height="21.667" filterUnits="userSpaceOnUse" color-interpolation-filters="sRGB">
<feFlood flood-opacity="0" result="BackgroundImageFix"/>
<feBlend mode="normal" in="SourceGraphic" in2="BackgroundImageFix" result="shape"/>
<feColorMatrix in="SourceAlpha" type="matrix" values="0 0 0 0 0 0 0 0 0 0 0 0 0 0 0 0 0 0 127 0" result="hardAlpha"/>
<feOffset/>
<feGaussianBlur stdDeviation="3"/>
<feComposite in2="hardAlpha" operator="arithmetic" k2="-1" k3="1"/>
<feColorMatrix type="matrix" values="0 0 0 0 0.320833 0 0 0 0 0.320833 0 0 0 0 0.320833 0 0 0 0.25 0"/>
<feBlend mode="normal" in2="shape" result="effect1_innerShadow_1214_3739"/>
</filter>
</defs>
</svg>
