<svg width="67" height="67" viewBox="0 0 67 67" fill="none" xmlns="http://www.w3.org/2000/svg">
<g filter="url(#filter0_i_1214_3711)">
<rect x="0.290527" y="0.816406" width="66.1042" height="66.1042" rx="15" fill="white"/>
</g>
<path d="M43.0156 18.2334H23.6702C17.8666 18.2334 13.9976 22.1025 13.9976 27.9061V39.5133C13.9976 45.3169 17.8666 49.186 23.6702 49.186H43.0156C48.8192 49.186 52.6883 45.3169 52.6883 39.5133V27.9061C52.6883 22.1025 48.8192 18.2334 43.0156 18.2334ZM36.9992 35.7022L32.2209 38.5654C30.2863 39.7261 28.7 38.8362 28.7 36.5728V30.8272C28.7 28.5638 30.2863 27.6739 32.2209 28.8346L36.9992 31.6978C38.837 32.8198 38.837 34.5996 36.9992 35.7022Z" fill="#FF5C5C"/>
<defs>
<filter id="filter0_i_1214_3711" x="0.290527" y="0.816406" width="66.1042" height="66.1045" filterUnits="userSpaceOnUse" color-interpolation-filters="sRGB">
<feFlood flood-opacity="0" result="BackgroundImageFix"/>
<feBlend mode="normal" in="SourceGraphic" in2="BackgroundImageFix" result="shape"/>
<feColorMatrix in="SourceAlpha" type="matrix" values="0 0 0 0 0 0 0 0 0 0 0 0 0 0 0 0 0 0 127 0" result="hardAlpha"/>
<feOffset/>
<feGaussianBlur stdDeviation="7.5"/>
<feComposite in2="hardAlpha" operator="arithmetic" k2="-1" k3="1"/>
<feColorMatrix type="matrix" values="0 0 0 0 0.845833 0 0 0 0 0.845833 0 0 0 0 0.845833 0 0 0 0.25 0"/>
<feBlend mode="normal" in2="shape" result="effect1_innerShadow_1214_3711"/>
</filter>
</defs>
</svg>
